<?xml version="1.0" encoding="UTF-8"?>
<svg xmlns="http://www.w3.org/2000/svg" width="230" height="60" viewBox="0 0 230 60">
  <g fill="none">
    <rect fill="#ffffff" x="0" y="0" width="100%" height="100%" />
    <path fill="#3A424B" d="M6.27920068,0.00323910294 C4.07824374,0.00323910294 1.94202083,0.650579379 0,1.75105785 C0.712074303,2.72206826 1.22994652,3.7578127 1.61835069,4.85829117 C2.97776527,4.01674881 4.59611596,3.49887659 6.27920068,3.49887659 C8.15648748,3.49887659 9.96904025,4.08148284 11.5226569,5.18196131 L13.98255,2.65733423 C11.781593,0.844781462 9.12749789,-0.0614949246 6.27920068,0.00323910294 Z" transform="translate(33.338 32.364)"></path>
    <path fill="#54616E" d="M32.1080777,32.5612159 L0,0.194202083 L0.194202083,5.11398818 C0.25893611,6.02026457 1.29468055,26.9940895 18.1902618,43.5012665 L20.5854208,40.9766395 C9.71010414,30.3602589 5.82606248,17.4134534 4.4666479,10.5516465 L4.20771179,9.386434 L29.6481846,35.0211089 C33.2732902,38.6462145 33.2732902,44.601745 29.6481846,48.2268505 L27.1235576,50.8162117 L27.1235576,55.7359977 L32.1080777,50.6867436 C37.0925978,45.7669575 37.0925978,37.61047 32.1080777,32.5612159 Z"></path>
    <path fill="#3A424B" d="M3.17196735,13.8530819 C3.23670138,12.9468055 3.36616943,12.1052632 3.49563749,11.2637208 L3.68983957,10.0985083 L7.31494512,18.0607937 L14.5004222,25.3110048 L2.78356319,-4.59962931e-15 L1.29468055,4.72558401 C1.22994652,4.98452012 0.517872221,7.18547706 0,10.6811146 L3.17196735,13.8530819 Z" transform="translate(14.241)"></path>
    <path fill="#3A424B" d="M30.2955249,41.6887138 L12.8173375,59.6200394 L12.8173375,54.6355193 L29.1303124,37.8694061 C29.1950464,37.8046721 30.8133971,40.0703631 30.2955249,41.6887138 Z"></path>
    <g transform="translate(39.747 36.51)">
      <path fill="#3A424B" d="M0,9.83957219 C0,7.25021109 1.68308472,5.56712637 4.79031804,5.56712637 L9.83957219,5.56712637 L9.83957219,1.03574444 C9.83957219,0.712074303 10.0985083,0.517872221 10.3574444,0.517872221 L12.6231354,0.517872221 C12.9468055,0.517872221 13.1410076,0.776808331 13.1410076,1.03574444 L13.1410076,18.6433999 C13.1410076,18.9670701 12.8820715,19.1612722 12.6231354,19.1612722 L10.7458486,19.1612722 C10.3574444,19.1612722 10.1632423,18.9023361 10.0985083,18.6433999 L9.96904025,18.1255277 L9.83957219,18.1255277 C9.25696594,18.3844638 8.73909372,18.6433999 8.15648748,18.837602 C7.12074303,19.2907402 5.89079651,19.6144104 4.79031804,19.6144104 C1.8772868,19.6144104 0,17.7371236 0,15.2124965 L0,9.83957219 L0,9.83957219 Z M8.28595553,16.377709 C8.86856178,16.2482409 9.386434,16.1187729 9.90430622,15.9893048 L9.90430622,8.2212215 L5.37292429,8.2212215 C4.14297777,8.2212215 3.36616943,8.99802983 3.36616943,10.2279764 L3.36616943,14.6298902 C3.36616943,15.9893048 4.14297777,16.7661131 5.37292429,16.7661131 C6.21446665,16.7661131 7.31494512,16.5719111 8.28595553,16.377709 Z"></path>
      <path fill="#9E292B" d="M33.4027582 7.83281734C33.4027582 10.6163805 31.0075992 13.0115395 27.2530256 13.0115395L21.232761 13.0115395 21.232761 18.6433999C21.232761 18.9670701 20.9738249 19.1612722 20.7148888 19.1612722L18.1902618 19.1612722C17.8665916 19.1612722 17.6723895 18.9023361 17.6723895 18.6433999L17.6723895 1.03574444C17.6723895.712074303 17.9313256.517872221 18.1902618.517872221L27.2530256.517872221C31.0075992.517872221 33.4027582 2.91303124 33.4027582 5.69659443L33.4027582 7.83281734ZM21.232761 10.0985083 26.7351534 10.0985083C28.6124402 10.0985083 29.7776527 8.93329581 29.7776527 7.44441317L29.7776527 6.08499859C29.7776527 4.59611596 28.6124402 3.43090346 26.7351534 3.43090346L21.232761 3.43090346 21.232761 10.0985083ZM49.6509992 9.58063608 49.6509992 18.6433999C49.6509992 18.9670701 49.392063 19.1612722 49.1331269 19.1612722L46.867436 19.1612722C46.5437658 19.1612722 46.3495637 18.9023361 46.3495637 18.6433999L46.3495637 10.0985083C46.3495637 8.73909372 45.5727554 7.96228539 44.3428089 7.96228539 43.4365325 7.96228539 42.336054 8.15648748 41.4297777 8.35068956 40.8471714 8.48015761 40.3292992 8.60962567 39.811427 8.73909372L39.811427 18.6433999C39.811427 18.9670701 39.5524909 19.1612722 39.2935547 19.1612722L37.0278638 19.1612722C36.7041936 19.1612722 36.5099916 18.9023361 36.5099916 18.6433999L36.5099916 1.03574444C36.5099916.712074303 36.7689277.517872221 37.0278638.517872221L39.2935547.517872221C39.6172249.517872221 39.811427.776808331 39.811427 1.03574444L39.811427 6.3439347 39.940895 6.3439347C40.4587672 6.08499859 40.9766395 5.89079651 41.5592457 5.76132845 42.5302561 5.43765832 43.6954686 5.17872221 44.8606811 5.17872221 47.7737124 5.17872221 49.6509992 6.99127498 49.6509992 9.58063608ZM66.3523783 15.2772305C66.3523783 17.8665916 64.6692936 19.5496763 61.5620602 19.5496763L57.5485505 19.5496763C54.4413172 19.5496763 52.7582325 17.8665916 52.7582325 15.2772305L52.7582325 9.386434C52.7582325 6.7970729 54.4413172 5.11398818 57.5485505 5.11398818L61.5620602 5.11398818C64.6692936 5.11398818 66.3523783 6.7970729 66.3523783 9.386434L66.3523783 15.2772305ZM62.9862088 9.83957219C62.9862088 8.60962567 62.2094005 7.83281734 60.979454 7.83281734L58.0664227 7.83281734C56.8364762 7.83281734 56.0596679 8.60962567 56.0596679 9.83957219L56.0596679 14.8888263C56.0596679 16.1187729 56.8364762 16.8955812 58.0664227 16.8955812L60.979454 16.8955812C62.2094005 16.8955812 62.9862088 16.1187729 62.9862088 14.8888263L62.9862088 9.83957219ZM72.3079088 13.7236138 72.3079088 14.9535604C72.3079088 16.1835069 73.0847171 16.9603152 74.3146637 16.9603152 75.4798762 16.9603152 77.0334928 16.7013791 78.3929074 16.442443 79.1697157 16.312975 79.9465241 16.1187729 80.7233324 15.9245708 81.0470025 15.9245708 81.2412046 16.1835069 81.2412046 16.442443L81.2412046 18.0607937C81.2412046 18.3844638 80.9822685 18.5139319 80.7233324 18.5786659 79.9465241 18.772868 79.1049817 18.9670701 78.2634393 19.0965381 76.7745567 19.4202083 75.091472 19.6144104 73.6025894 19.6144104 70.495356 19.6144104 68.9417394 17.9960597 68.9417394 15.3419645L68.9417394 9.45116803C68.9417394 6.86180692 70.6248241 5.17872221 73.7320574 5.17872221L77.0982269 5.17872221C80.2054602 5.17872221 81.8885449 6.86180692 81.8885449 9.45116803L81.8885449 13.0115395C81.8885449 13.3999437 81.6296088 13.7236138 81.2412046 13.7236138L72.3079088 13.7236138ZM72.3079088 11.0047847 78.5871095 11.0047847 78.5871095 9.77483816C78.5871095 8.54489164 77.8103012 7.76808331 76.5803546 7.76808331L74.3146637 7.76808331C73.0847171 7.76808331 72.3079088 8.54489164 72.3079088 9.77483816L72.3079088 11.0047847ZM98.2015198 9.58063608 98.2015198 18.6433999C98.2015198 18.9670701 97.9425837 19.1612722 97.6836476 19.1612722L95.4179567 19.1612722C95.0942865 19.1612722 94.9000844 18.9023361 94.9000844 18.6433999L94.9000844 10.0985083C94.9000844 8.73909372 94.1232761 7.96228539 92.8933296 7.96228539 91.9870532 7.96228539 90.8865747 8.15648748 89.9802983 8.35068956 89.3976921 8.48015761 88.8798199 8.60962567 88.3619476 8.73909372L88.3619476 18.6433999C88.3619476 18.9670701 88.1030115 19.1612722 87.8440754 19.1612722L85.5783845 19.1612722C85.2547143 19.1612722 85.0605122 18.9023361 85.0605122 18.6433999L85.0605122 6.08499859C85.0605122 5.76132845 85.3194484 5.56712637 85.5783845 5.56712637L87.4556713 5.56712637C87.8440754 5.56712637 88.0382775 5.82606248 88.1030115 6.08499859L88.2324796 6.60287081 88.3619476 6.60287081C88.9445539 6.3439347 89.4624261 6.08499859 90.0450324 5.82606248 91.0807768 5.43765832 92.3107233 5.11398818 93.4112018 5.11398818 96.324233 5.17872221 98.2015198 6.99127498 98.2015198 9.58063608ZM102.86237 8.2212215 101.244019 8.2212215C100.920349 8.2212215 100.726147 7.96228539 100.726147 7.70334928L100.726147 6.08499859C100.726147 5.76132845 100.985083 5.56712637 101.244019 5.56712637L105.645933 5.56712637C105.969603 5.56712637 106.163805 5.82606248 106.163805 6.08499859L106.163805 18.6433999C106.163805 18.9670701 105.904869 19.1612722 105.645933 19.1612722L103.380242 19.1612722C103.056572 19.1612722 102.86237 18.9023361 102.86237 18.6433999L102.86237 8.2212215ZM106.228539 2.91303124C106.228539 3.43090346 105.969603 3.68983957 105.451731 3.68983957L103.574444 3.68983957C103.056572 3.68983957 102.797636 3.43090346 102.797636 2.91303124L102.797636.776808331C102.797636.25893611 103.056572 0 103.574444 0L105.451731 0C105.969603 0 106.228539.25893611 106.228539.776808331L106.228539 2.91303124ZM115.356037 14.112018 112.18407 18.6433999C111.989868 18.9670701 111.795666 19.1612722 111.407261 19.1612722L108.882634 19.1612722C108.558964 19.1612722 108.429496 18.9023361 108.623698 18.6433999L113.15508 12.1052632 109.141571 6.08499859C108.947368 5.76132845 109.141571 5.56712637 109.400507 5.56712637L111.925134 5.56712637C112.313538 5.56712637 112.50774 5.82606248 112.701942 6.08499859L115.356037 10.0985083 115.485505 10.0985083 118.1396 6.08499859C118.333802 5.76132845 118.528005 5.56712637 118.916409 5.56712637L121.441036 5.56712637C121.764706 5.56712637 121.894174 5.82606248 121.699972 6.08499859L117.686462 12.1052632 122.217844 18.6433999C122.412046 18.9670701 122.217844 19.1612722 121.958908 19.1612722L119.434281 19.1612722C119.045877 19.1612722 118.851675 18.9023361 118.657473 18.6433999L115.485505 14.112018 115.356037 14.112018Z"></path>
      <path fill="#3A424B" d="M124.095131 5.50239234C124.095131 2.5893611 126.231354.453138193 129.726991.453138193L137.171404.453138193C137.495075.453138193 137.689277.712074303 137.689277.971010414L137.689277 2.91303124C137.689277 3.23670138 137.430341 3.43090346 137.171404 3.43090346L130.244863 3.43090346C128.755981 3.43090346 127.720236 4.4666479 127.720236 5.56712637 127.720236 9.71010414 138.271883 7.18547706 138.271883 14.3709541 138.271883 17.6076555 136.13566 19.6791444 132.381086 19.6791444 130.633268 19.6791444 128.497045 19.3554742 126.749226 19.0318041 125.713482 18.837602 124.742471 18.5786659 123.706727 18.3844638 123.383057 18.3197298 123.188854 18.1255277 123.188854 17.8665916L123.188854 15.8598368C123.188854 15.5361666 123.447791 15.3419645 123.706727 15.3419645 124.677737 15.6009006 125.713482 15.7951027 126.684492 15.9893048 127.849704 16.2482409 128.561779 16.312975 129.403321 16.442443 130.244863 16.5719111 131.086406 16.6366451 131.863214 16.6366451 133.481565 16.6366451 134.646777 15.6009006 134.646777 14.3709541 134.646777 10.2279764 124.095131 12.7526034 124.095131 5.50239234ZM141.055446 15.1477625 141.055446 6.08499859C141.055446 5.76132845 141.314382 5.56712637 141.573318 5.56712637L143.839009 5.56712637C144.162679 5.56712637 144.356882 5.82606248 144.356882 6.08499859L144.356882 14.6298902C144.356882 15.9893048 145.13369 16.7661131 146.363636 16.7661131 147.269913 16.7661131 148.305657 16.5719111 149.276668 16.377709 149.859274 16.2482409 150.377146 16.1187729 150.895018 15.9893048L150.895018 6.08499859C150.895018 5.76132845 151.153954 5.56712637 151.412891 5.56712637L153.678581 5.56712637C154.002252 5.56712637 154.196454 5.82606248 154.196454 6.08499859L154.196454 18.6433999C154.196454 18.9670701 153.937518 19.1612722 153.678581 19.1612722L151.801295 19.1612722C151.412891 19.1612722 151.218688 18.9023361 151.153954 18.6433999L151.024486 18.1255277 150.959752 18.1255277C150.377146 18.3844638 149.859274 18.6433999 149.276668 18.837602 148.240923 19.2907402 147.010977 19.6144104 145.910498 19.6144104 142.932733 19.5496763 141.055446 17.6723895 141.055446 15.1477625ZM159.051506 8.2212215 157.433155 8.2212215C157.109485 8.2212215 156.915283 7.96228539 156.915283 7.70334928L156.915283 6.08499859C156.915283 5.76132845 157.174219 5.56712637 157.433155 5.56712637L161.835069 5.56712637C162.158739 5.56712637 162.352941 5.82606248 162.352941 6.08499859L162.352941 18.6433999C162.352941 18.9670701 162.094005 19.1612722 161.835069 19.1612722L159.569378 19.1612722C159.245708 19.1612722 159.051506 18.9023361 159.051506 18.6433999L159.051506 8.2212215ZM162.417675 2.91303124C162.417675 3.43090346 162.158739 3.68983957 161.640867 3.68983957L159.76358 3.68983957C159.245708 3.68983957 158.986772 3.43090346 158.986772 2.91303124L158.986772.776808331C158.986772.25893611 159.245708 0 159.76358 0L161.640867 0C162.158739 0 162.417675.25893611 162.417675.776808331L162.417675 2.91303124ZM170.703631 8.2212215 170.703631 15.0182944C170.703631 16.377709 171.350971 17.0250493 172.451449 17.0250493 172.969322 17.0250493 173.616662 16.9603152 174.134534 16.9603152 174.458204 16.9603152 174.71714 16.9603152 174.976077 16.8955812 175.299747 16.8955812 175.493949 17.1545173 175.493949 17.4134534L175.493949 18.9023361C175.493949 19.2260062 175.235013 19.4202083 174.976077 19.4202083 174.652406 19.4849423 174.39347 19.5496763 174.0698 19.5496763 173.487194 19.6144104 172.77512 19.6791444 171.933577 19.6791444 168.955812 19.6791444 167.402195 18.0607937 167.402195 15.2772305L167.402195 8.2212215 165.524909 8.2212215C165.201238 8.2212215 165.007036 7.96228539 165.007036 7.70334928L165.007036 6.08499859C165.007036 5.76132845 165.265972 5.56712637 165.524909 5.56712637L167.531663 5.56712637 168.179004 2.78356319C168.243738 2.45989305 168.43794 2.26569097 168.696876 2.26569097L170.185759 2.26569097C170.509429 2.26569097 170.703631 2.52462708 170.703631 2.78356319L170.703631 5.56712637 174.0698 5.56712637C174.39347 5.56712637 174.587672 5.82606248 174.587672 6.08499859L174.587672 7.70334928C174.587672 8.02701942 174.328736 8.2212215 174.0698 8.2212215L170.703631 8.2212215ZM180.672671 13.7236138 180.672671 14.9535604C180.672671 16.1835069 181.449479 16.9603152 182.679426 16.9603152 183.844638 16.9603152 185.398255 16.7013791 186.75767 16.442443 187.534478 16.312975 188.311286 16.1187729 189.088095 15.9245708 189.411765 15.9245708 189.605967 16.1835069 189.605967 16.442443L189.605967 18.0607937C189.605967 18.3844638 189.347031 18.5139319 189.088095 18.5786659 188.311286 18.772868 187.469744 18.9670701 186.628202 19.0965381 185.139319 19.4202083 183.456234 19.6144104 181.967352 19.6144104 178.860118 19.6144104 177.306502 17.9960597 177.306502 15.3419645L177.306502 9.45116803C177.306502 6.86180692 178.989586 5.17872221 182.09682 5.17872221L185.462989 5.17872221C188.570222 5.17872221 190.253307 6.86180692 190.253307 9.45116803L190.253307 13.0115395C190.253307 13.3999437 189.994371 13.7236138 189.605967 13.7236138L180.672671 13.7236138ZM180.672671 11.0047847 186.951872 11.0047847 186.951872 9.77483816C186.951872 8.54489164 186.175063 7.76808331 184.945117 7.76808331L182.679426 7.76808331C181.449479 7.76808331 180.672671 8.54489164 180.672671 9.77483816L180.672671 11.0047847Z"></path>
    </g>
  </g>
</svg>
